<svg width="117" height="24" viewBox="0 0 117 24" fill="none" xmlns="http://www.w3.org/2000/svg">
<path d="M106.916 15.4811V21.2096C106.916 22.1144 106.711 22.793 106.301 23.2454C105.89 23.6977 105.349 23.9239 104.675 23.9239C104.023 23.9239 103.492 23.6977 103.081 23.2454C102.682 22.793 102.482 22.1144 102.482 21.2096V14.3449C102.482 13.2613 102.445 12.4196 102.371 11.8199C102.298 11.2203 102.098 10.7311 101.771 10.3523C101.445 9.96305 100.93 9.76842 100.225 9.76842C98.8152 9.76842 97.8841 10.2524 97.4317 11.2203C96.9899 12.1882 96.7689 13.5769 96.7689 15.3864V21.2096C96.7689 22.1039 96.5638 22.7824 96.1535 23.2454C95.7537 23.6977 95.2224 23.9239 94.5596 23.9239C93.9073 23.9239 93.3708 23.6977 92.9499 23.2454C92.5396 22.7824 92.3345 22.1039 92.3345 21.2096V8.88468C92.3345 8.07459 92.5186 7.45914 92.8868 7.03831C93.2655 6.61749 93.76 6.40707 94.3702 6.40707C94.9594 6.40707 95.4486 6.60697 95.8378 7.00675C96.2376 7.39601 96.4375 7.93783 96.4375 8.63219V9.04249C97.1845 8.14824 97.9841 7.4907 98.8362 7.06987C99.6884 6.64905 100.635 6.43864 101.677 6.43864C102.76 6.43864 103.691 6.65431 104.47 7.08565C105.249 7.517 105.89 8.16928 106.395 9.04249C107.121 8.15876 107.9 7.50648 108.731 7.08565C109.562 6.65431 110.483 6.43864 111.493 6.43864C112.671 6.43864 113.686 6.67009 114.538 7.133C115.39 7.59591 116.027 8.25871 116.448 9.1214C116.816 9.89992 117 11.1256 117 12.7984V21.2096C117 22.1144 116.795 22.793 116.385 23.2454C115.974 23.6977 115.433 23.9239 114.759 23.9239C114.107 23.9239 113.57 23.6977 113.15 23.2454C112.739 22.7824 112.534 22.1039 112.534 21.2096V13.9662C112.534 13.0403 112.492 12.2986 112.408 11.741C112.334 11.1834 112.124 10.7153 111.777 10.3365C111.429 9.95779 110.903 9.76842 110.199 9.76842C109.63 9.76842 109.089 9.93675 108.573 10.2734C108.068 10.6101 107.674 11.0625 107.39 11.6306C107.074 12.3565 106.916 13.64 106.916 15.4811Z" fill="#396F87"/>
<path d="M84.2545 21.4937C83.213 22.3038 82.203 22.914 81.2246 23.3243C80.2567 23.724 79.1678 23.9239 77.9579 23.9239C76.8532 23.9239 75.8801 23.7083 75.0384 23.2769C74.2073 22.8351 73.5655 22.2406 73.1132 21.4937C72.6608 20.7467 72.4346 19.9366 72.4346 19.0634C72.4346 17.8851 72.8081 16.8804 73.555 16.0492C74.302 15.2181 75.3277 14.6605 76.6323 14.3765C76.9058 14.3133 77.5844 14.1713 78.668 13.9504C79.7517 13.7294 80.6775 13.5296 81.4455 13.3507C82.224 13.1613 83.0657 12.9351 83.9704 12.6721C83.9178 11.5359 83.6864 10.7048 83.2761 10.1787C82.8763 9.64218 82.0399 9.3739 80.7669 9.3739C79.6728 9.3739 78.8469 9.52645 78.2893 9.83155C77.7422 10.1366 77.2688 10.5943 76.869 11.2045C76.4798 11.8147 76.201 12.2197 76.0326 12.4196C75.8748 12.609 75.5276 12.7037 74.9911 12.7037C74.5071 12.7037 74.0863 12.5511 73.7286 12.246C73.3814 11.9304 73.2078 11.5306 73.2078 11.0467C73.2078 10.2892 73.4761 9.55275 74.0127 8.83735C74.5492 8.12194 75.3856 7.53279 76.5218 7.06988C77.6581 6.60697 79.0731 6.37552 80.7669 6.37552C82.6606 6.37552 84.1493 6.60171 85.2329 7.0541C86.3166 7.49597 87.0793 8.20085 87.5212 9.16875C87.9736 10.1366 88.1997 11.4202 88.1997 13.0193C88.1997 14.0293 88.1945 14.8867 88.184 15.5916C88.184 16.2965 88.1787 17.0803 88.1682 17.943C88.1682 18.753 88.2997 19.6 88.5627 20.4837C88.8362 21.3569 88.973 21.9198 88.973 22.1723C88.973 22.6141 88.7626 23.0192 88.3418 23.3874C87.9315 23.7451 87.4633 23.9239 86.9373 23.9239C86.4954 23.9239 86.0588 23.7188 85.6274 23.3085C85.1961 22.8877 84.7385 22.2827 84.2545 21.4937ZM83.9704 15.2602C83.3392 15.4917 82.4187 15.7389 81.2088 16.0019C80.0094 16.2544 79.1783 16.4438 78.7154 16.57C78.2525 16.6857 77.8106 16.9225 77.3898 17.2802C76.969 17.6273 76.7586 18.1165 76.7586 18.7478C76.7586 19.4001 77.0058 19.9577 77.5003 20.4206C77.9947 20.873 78.6417 21.0991 79.4413 21.0991C80.2935 21.0991 81.0773 20.915 81.7927 20.5468C82.5186 20.1681 83.0499 19.6841 83.3866 19.095C83.7758 18.4427 83.9704 17.3696 83.9704 15.8757V15.2602Z" fill="#396F87"/>
<path d="M66.8008 21.9513L62.9976 15.7021L60.662 17.9114V21.3359C60.662 22.167 60.4411 22.8087 59.9992 23.2611C59.5679 23.703 59.0682 23.9239 58.5001 23.9239C57.8373 23.9239 57.3165 23.703 56.9377 23.2611C56.559 22.8193 56.3696 22.167 56.3696 21.3043V2.93526C56.3696 1.97788 56.5537 1.25196 56.922 0.757486C57.2902 0.252495 57.8162 0 58.5001 0C59.1629 0 59.6889 0.226194 60.0782 0.678581C60.4674 1.13097 60.662 1.79903 60.662 2.68276V13.1298L65.5068 8.04829C66.1065 7.41705 66.5641 6.9857 66.8797 6.75425C67.1954 6.52279 67.5794 6.40707 68.0318 6.40707C68.5683 6.40707 69.0154 6.58066 69.3731 6.92784C69.7308 7.2645 69.9097 7.69059 69.9097 8.2061C69.9097 8.83733 69.3258 9.67899 68.158 10.731L65.8698 12.8299L70.2884 19.7735C70.6146 20.289 70.846 20.6836 70.9828 20.9571C71.1301 21.2201 71.2037 21.4726 71.2037 21.7146C71.2037 22.3984 71.0144 22.9402 70.6356 23.34C70.2674 23.7293 69.7782 23.9239 69.168 23.9239C68.642 23.9239 68.2369 23.7819 67.9528 23.4978C67.6688 23.2138 67.2848 22.6983 66.8008 21.9513Z" fill="#396F87"/>
<path d="M50.3892 18.0697L45.2472 23.2117L40.1052 18.0697C39.0882 17.0527 38.3956 15.757 38.1151 14.3464C37.8345 12.9358 37.9785 11.4737 38.5289 10.1449C39.0793 8.81615 40.0113 7.68045 41.2072 6.88141C42.403 6.08237 43.809 5.65588 45.2472 5.65588C46.6854 5.65588 48.0914 6.08237 49.2872 6.88141C50.4831 7.68045 51.4151 8.81615 51.9655 10.1449C52.5159 11.4737 52.6599 12.9358 52.3794 14.3464C52.0988 15.757 51.4062 17.0527 50.3892 18.0697ZM45.2472 16.1596C46.1044 16.1596 46.9264 15.8191 47.5325 15.213C48.1386 14.6069 48.4791 13.7848 48.4791 12.9277C48.4791 12.0705 48.1386 11.2485 47.5325 10.6424C46.9264 10.0363 46.1044 9.69575 45.2472 9.69575C44.39 9.69575 43.568 10.0363 42.9619 10.6424C42.3558 11.2485 42.0153 12.0705 42.0153 12.9277C42.0153 13.7848 42.3558 14.6069 42.9619 15.213C43.568 15.8191 44.39 16.1596 45.2472 16.1596ZM45.2472 14.5437C44.8186 14.5437 44.4076 14.3734 44.1045 14.0703C43.8015 13.7673 43.6312 13.3563 43.6312 12.9277C43.6312 12.4991 43.8015 12.0881 44.1045 11.785C44.4076 11.482 44.8186 11.3117 45.2472 11.3117C45.6758 11.3117 46.0868 11.482 46.3899 11.785C46.6929 12.0881 46.8632 12.4991 46.8632 12.9277C46.8632 13.3563 46.6929 13.7673 46.3899 14.0703C46.0868 14.3734 45.6758 14.5437 45.2472 14.5437Z" fill="#F89422"/>
<path d="M27.8692 17.7062V21.3043C27.8692 22.1775 27.6641 22.835 27.2538 23.2769C26.8435 23.7083 26.3227 23.9239 25.6915 23.9239C25.0707 23.9239 24.5605 23.703 24.1607 23.2611C23.7609 22.8193 23.561 22.167 23.561 21.3043V9.31077C23.561 7.37497 24.2607 6.40707 25.6599 6.40707C26.3753 6.40707 26.8908 6.63327 27.2064 7.08565C27.5221 7.53804 27.6956 8.2061 27.7272 9.08984C28.2427 8.2061 28.7688 7.53804 29.3053 7.08565C29.8524 6.63327 30.5783 6.40707 31.4831 6.40707C32.3878 6.40707 33.2663 6.63327 34.1185 7.08565C34.9707 7.53804 35.3968 8.13772 35.3968 8.88468C35.3968 9.41072 35.2126 9.84732 34.8444 10.1945C34.4867 10.5312 34.0975 10.6995 33.6766 10.6995C33.5188 10.6995 33.1348 10.6048 32.5246 10.4154C31.9249 10.2155 31.3936 10.1156 30.9307 10.1156C30.2995 10.1156 29.784 10.2839 29.3842 10.6206C28.9844 10.9467 28.6741 11.4359 28.4531 12.0882C28.2322 12.7405 28.0796 13.519 27.9955 14.4238C27.9113 15.3181 27.8692 16.4122 27.8692 17.7062Z" fill="#396F87"/>
<path d="M4.68694 2.84057V10.952L13.8872 1.35716C14.3291 0.894254 14.7026 0.552333 15.0077 0.3314C15.3233 0.110467 15.7389 0 16.2544 0C16.9277 0 17.4695 0.199892 17.8798 0.599676C18.3006 0.98894 18.5111 1.46763 18.5111 2.03574C18.5111 2.71958 18.1586 3.39817 17.4537 4.07149L11.7568 9.46857L18.3217 18.874C18.7846 19.5263 19.1318 20.0997 19.3632 20.5941C19.5947 21.0781 19.7104 21.5515 19.7104 22.0144C19.7104 22.5299 19.5053 22.9771 19.095 23.3558C18.6952 23.7346 18.1481 23.9239 17.4537 23.9239C16.8015 23.9239 16.2702 23.7872 15.8599 23.5136C15.4496 23.2296 15.1024 22.8561 14.8183 22.3932C14.5343 21.9303 14.2818 21.5094 14.0608 21.1307L8.52172 12.609L4.68694 16.2859V21.0676C4.68694 22.0355 4.46601 22.7561 4.02414 23.2296C3.58228 23.6925 3.01416 23.9239 2.3198 23.9239C1.92002 23.9239 1.53601 23.8187 1.16779 23.6083C0.799568 23.3979 0.515511 23.1138 0.315619 22.7561C0.16833 22.4616 0.0789048 22.1196 0.0473429 21.7304C0.015781 21.3411 0 20.7783 0 20.0418V2.84057C0 1.89371 0.205152 1.18357 0.615457 0.710143C1.03628 0.236714 1.6044 0 2.3198 0C3.02468 0 3.5928 0.236714 4.02414 0.710143C4.46601 1.17305 4.68694 1.88319 4.68694 2.84057Z" fill="#396F87"/>
</svg>
